<svg width="3073" height="612" viewBox="0 0 3073 612" fill="none" xmlns="http://www.w3.org/2000/svg">
<g clip-path="url(#clip0_102_9)">
<rect x="56" y="56" width="79.8226" height="400.222" fill="white"/>
<rect x="332.053" y="56" width="79.8226" height="500" fill="white"/>
<rect x="66.6442" y="96.0869" width="80.1738" height="531.062" transform="rotate(-30 66.6442 96.0869)" fill="white"/>
<circle cx="95.9113" cy="516.089" r="39.9113" fill="white"/>
<path d="M485.375 390.688V383.5C485.375 359.125 488.917 336.521 496 315.688C503.083 294.646 513.292 276.417 526.625 261C540.167 245.375 556.625 233.292 576 224.75C595.583 216 617.667 211.625 642.25 211.625C667.042 211.625 689.125 216 708.5 224.75C728.083 233.292 744.646 245.375 758.188 261C771.729 276.417 782.042 294.646 789.125 315.688C796.208 336.521 799.75 359.125 799.75 383.5V390.688C799.75 415.062 796.208 437.667 789.125 458.5C782.042 479.333 771.729 497.562 758.188 513.188C744.646 528.604 728.188 540.688 708.812 549.438C689.438 557.979 667.458 562.25 642.875 562.25C618.083 562.25 595.896 557.979 576.312 549.438C556.938 540.688 540.479 528.604 526.938 513.188C513.396 497.562 503.083 479.333 496 458.5C488.917 437.667 485.375 415.062 485.375 390.688ZM560.688 383.5V390.688C560.688 405.896 562.25 420.271 565.375 433.812C568.5 447.354 573.396 459.229 580.062 469.438C586.729 479.646 595.271 487.667 605.688 493.5C616.104 499.333 628.5 502.25 642.875 502.25C656.833 502.25 668.917 499.333 679.125 493.5C689.542 487.667 698.083 479.646 704.75 469.438C711.417 459.229 716.312 447.354 719.438 433.812C722.771 420.271 724.438 405.896 724.438 390.688V383.5C724.438 368.5 722.771 354.333 719.438 341C716.312 327.458 711.312 315.479 704.438 305.062C697.771 294.646 689.229 286.521 678.812 280.688C668.604 274.646 656.417 271.625 642.25 271.625C628.083 271.625 615.792 274.646 605.375 280.688C595.167 286.521 586.729 294.646 580.062 305.062C573.396 315.479 568.5 327.458 565.375 341C562.25 354.333 560.688 368.5 560.688 383.5ZM938.5 282.25V556H863.188V217.875H935.062L938.5 282.25ZM1041.94 215.688L1041.31 285.688C1036.73 284.854 1031.73 284.229 1026.31 283.812C1021.1 283.396 1015.9 283.188 1010.69 283.188C997.771 283.188 986.417 285.062 976.625 288.812C966.833 292.354 958.604 297.562 951.938 304.438C945.479 311.104 940.479 319.229 936.938 328.812C933.396 338.396 931.312 349.125 930.688 361L913.5 362.25C913.5 341 915.583 321.312 919.75 303.188C923.917 285.062 930.167 269.125 938.5 255.375C947.042 241.625 957.667 230.896 970.375 223.188C983.292 215.479 998.188 211.625 1015.06 211.625C1019.65 211.625 1024.54 212.042 1029.75 212.875C1035.17 213.708 1039.23 214.646 1041.94 215.688ZM1164.44 286.625V556H1089.12V217.875H1160.06L1164.44 286.625ZM1152.25 374.438L1126.62 374.125C1126.62 350.792 1129.54 329.229 1135.38 309.438C1141.21 289.646 1149.75 272.458 1161 257.875C1172.25 243.083 1186.21 231.729 1202.88 223.812C1219.75 215.688 1239.23 211.625 1261.31 211.625C1276.73 211.625 1290.79 213.917 1303.5 218.5C1316.42 222.875 1327.56 229.854 1336.94 239.438C1346.52 249.021 1353.81 261.312 1358.81 276.312C1364.02 291.312 1366.62 309.438 1366.62 330.688V556H1291.31V337.25C1291.31 320.792 1288.81 307.875 1283.81 298.5C1279.02 289.125 1272.04 282.458 1262.88 278.5C1253.92 274.333 1243.19 272.25 1230.69 272.25C1216.52 272.25 1204.44 274.958 1194.44 280.375C1184.65 285.792 1176.62 293.188 1170.38 302.562C1164.12 311.938 1159.54 322.771 1156.62 335.062C1153.71 347.354 1152.25 360.479 1152.25 374.438ZM1361.94 354.438L1326.62 362.25C1326.62 341.833 1329.44 322.562 1335.06 304.438C1340.9 286.104 1349.33 270.062 1360.38 256.312C1371.62 242.354 1385.48 231.417 1401.94 223.5C1418.4 215.583 1437.25 211.625 1458.5 211.625C1475.79 211.625 1491.21 214.021 1504.75 218.812C1518.5 223.396 1530.17 230.688 1539.75 240.688C1549.33 250.688 1556.62 263.708 1561.62 279.75C1566.62 295.583 1569.12 314.75 1569.12 337.25V556H1493.5V336.938C1493.5 319.854 1491 306.625 1486 297.25C1481.21 287.875 1474.33 281.417 1465.38 277.875C1456.42 274.125 1445.69 272.25 1433.19 272.25C1421.52 272.25 1411.21 274.438 1402.25 278.812C1393.5 282.979 1386.1 288.917 1380.06 296.625C1374.02 304.125 1369.44 312.771 1366.31 322.562C1363.4 332.354 1361.94 342.979 1361.94 354.438ZM1837.25 488.188V326.938C1837.25 314.854 1835.06 304.438 1830.69 295.688C1826.31 286.938 1819.65 280.167 1810.69 275.375C1801.94 270.583 1790.9 268.188 1777.56 268.188C1765.27 268.188 1754.65 270.271 1745.69 274.438C1736.73 278.604 1729.75 284.229 1724.75 291.312C1719.75 298.396 1717.25 306.417 1717.25 315.375H1642.25C1642.25 302.042 1645.48 289.125 1651.94 276.625C1658.4 264.125 1667.77 252.979 1680.06 243.188C1692.35 233.396 1707.04 225.688 1724.12 220.062C1741.21 214.438 1760.38 211.625 1781.62 211.625C1807.04 211.625 1829.54 215.896 1849.12 224.438C1868.92 232.979 1884.44 245.896 1895.69 263.188C1907.15 280.271 1912.88 301.729 1912.88 327.562V477.875C1912.88 493.292 1913.92 507.146 1916 519.438C1918.29 531.521 1921.52 542.042 1925.69 551V556H1848.5C1844.96 547.875 1842.15 537.562 1840.06 525.062C1838.19 512.354 1837.25 500.062 1837.25 488.188ZM1848.19 350.375L1848.81 396.938H1794.75C1780.79 396.938 1768.5 398.292 1757.88 401C1747.25 403.5 1738.4 407.25 1731.31 412.25C1724.23 417.25 1718.92 423.292 1715.38 430.375C1711.83 437.458 1710.06 445.479 1710.06 454.438C1710.06 463.396 1712.15 471.625 1716.31 479.125C1720.48 486.417 1726.52 492.146 1734.44 496.312C1742.56 500.479 1752.35 502.562 1763.81 502.562C1779.23 502.562 1792.67 499.438 1804.12 493.188C1815.79 486.729 1824.96 478.917 1831.62 469.75C1838.29 460.375 1841.83 451.521 1842.25 443.188L1866.62 476.625C1864.12 485.167 1859.85 494.333 1853.81 504.125C1847.77 513.917 1839.85 523.292 1830.06 532.25C1820.48 541 1808.92 548.188 1795.38 553.812C1782.04 559.438 1766.62 562.25 1749.12 562.25C1727.04 562.25 1707.35 557.875 1690.06 549.125C1672.77 540.167 1659.23 528.188 1649.44 513.188C1639.65 497.979 1634.75 480.792 1634.75 461.625C1634.75 443.708 1638.08 427.875 1644.75 414.125C1651.62 400.167 1661.62 388.5 1674.75 379.125C1688.08 369.75 1704.33 362.667 1723.5 357.875C1742.67 352.875 1764.54 350.375 1789.12 350.375H1848.19ZM2072.25 76V556H1996.62V76H2072.25ZM2684.44 316V341C2684.44 375.375 2679.96 406.208 2671 433.5C2662.04 460.792 2649.23 484.021 2632.56 503.188C2616.1 522.354 2596.31 537.042 2573.19 547.25C2550.06 557.25 2524.44 562.25 2496.31 562.25C2468.4 562.25 2442.88 557.25 2419.75 547.25C2396.83 537.042 2376.94 522.354 2360.06 503.188C2343.19 484.021 2330.06 460.792 2320.69 433.5C2311.52 406.208 2306.94 375.375 2306.94 341V316C2306.94 281.625 2311.52 250.896 2320.69 223.812C2329.85 196.521 2342.77 173.292 2359.44 154.125C2376.31 134.75 2396.21 120.062 2419.12 110.062C2442.25 99.8542 2467.77 94.75 2495.69 94.75C2523.81 94.75 2549.44 99.8542 2572.56 110.062C2595.69 120.062 2615.58 134.75 2632.25 154.125C2648.92 173.292 2661.73 196.521 2670.69 223.812C2679.85 250.896 2684.44 281.625 2684.44 316ZM2606 341V315.375C2606 289.958 2603.5 267.562 2598.5 248.188C2593.71 228.604 2586.52 212.25 2576.94 199.125C2567.56 185.792 2556 175.792 2542.25 169.125C2528.5 162.25 2512.98 158.812 2495.69 158.812C2478.4 158.812 2462.98 162.25 2449.44 169.125C2435.9 175.792 2424.33 185.792 2414.75 199.125C2405.38 212.25 2398.19 228.604 2393.19 248.188C2388.19 267.562 2385.69 289.958 2385.69 315.375V341C2385.69 366.417 2388.19 388.917 2393.19 408.5C2398.19 428.083 2405.48 444.646 2415.06 458.188C2424.85 471.521 2436.52 481.625 2450.06 488.5C2463.6 495.167 2479.02 498.5 2496.31 498.5C2513.81 498.5 2529.33 495.167 2542.88 488.5C2556.42 481.625 2567.88 471.521 2577.25 458.188C2586.62 444.646 2593.71 428.083 2598.5 408.5C2603.5 388.917 2606 366.417 2606 341ZM2950.06 419.438V101H3028.19V419.438C3028.19 449.646 3021.73 475.375 3008.81 496.625C2995.9 517.875 2978.29 534.125 2956 545.375C2933.71 556.625 2908.4 562.25 2880.06 562.25C2851.1 562.25 2825.38 557.354 2802.88 547.562C2780.58 537.771 2763.08 522.771 2750.38 502.562C2737.67 482.354 2731.31 456.729 2731.31 425.688H2810.06C2810.06 443.604 2812.88 458.083 2818.5 469.125C2824.33 479.958 2832.46 487.875 2842.88 492.875C2853.5 497.667 2865.9 500.062 2880.06 500.062C2893.6 500.062 2905.58 497.042 2916 491C2926.62 484.75 2934.96 475.688 2941 463.812C2947.04 451.729 2950.06 436.938 2950.06 419.438Z" fill="white"/>
</g>
<defs>
<clipPath id="clip0_102_9">
<rect width="3073" height="612" fill="white"/>
</clipPath>
</defs>
</svg>
